<?xml version="1.0" encoding="UTF-8"?>
<svg width="621px" height="264px" viewBox="0 0 621 264" version="1.1" xmlns="http://www.w3.org/2000/svg" xmlns:xlink="http://www.w3.org/1999/xlink">
    <title>LKWD_Logo</title>
    <g id="Page-1" stroke="none" stroke-width="1" fill="none" fill-rule="evenodd">
        <g id="LKWD_Logo" fill="#F06024" fill-rule="nonzero">
            <polygon id="Path" points="231.3 162.6 231.3 75.5 193.7 75.5 206 87.5 206 186.5 263 186.5 263 162.6"></polygon>
            <polygon id="Path" points="311.3 137.5 311.3 186.5 286 186.5 286 87.5 273.7 75.5 311.3 75.5 311.3 121.8 339 82.5 332.3 75.5 376 75.5 335.8 127.8 379.8 186.2 346 186.2"></polygon>
            <polygon id="Path" points="471.3 186.5 507.3 186.5 507.3 75.5 469.7 75.5 482 87.5 482 144.5 461 75.8 430.3 75.8 439 84.5 421.3 144.5 421.3 75.5 383.7 75.5 396 87.5 396 186.5 431.8 186.5 451.5 122.2"></polygon>
            <path d="M573.8,75.5 L520.6,75.5 L532.9,87.5 L532.9,186.5 L573.7,186.5 C573.7,186.5 620.6,183 620.6,130.5 C620.6,78 573.8,75.5 573.8,75.5 Z M567.8,162.2 L558.3,162.2 L558.3,99.4 L568.3,99.4 C568.3,99.4 594,99.6 594,130.6 C594,161.6 567.8,162.2 567.8,162.2 Z" id="Shape"></path>
            <g id="Group" transform="translate(205.000000, 203.000000)">
                <polygon id="Path" points="0.9 39.4 0.9 1.5 5.5 1.5 5.5 34.9 22.5 34.9 22.5 39.4"></polygon>
                <path d="M43.8,21 C43.8,14.5 45.4,9.6 48.5,6.1 C51.7,2.6 55.6,0.9 60.3,0.9 C63.3,0.9 66.1,1.7 68.6,3.2 C71.1,4.8 73.1,7 74.6,10 C76.1,13 76.8,16.5 76.8,20.6 C76.8,26.2 75.4,30.8 72.6,34.3 C69.5,38.2 65.4,40.1 60.3,40.1 C55.2,40.1 51.1,38.1 48,34.1 C45.2,30.4 43.8,26.1 43.8,21 Z M48.5,21 C48.5,25.7 49.6,29.3 51.9,31.9 C54.2,34.5 57,35.8 60.2,35.8 C63.6,35.8 66.4,34.5 68.6,31.9 C70.9,29.3 72,25.5 72,20.4 C72,17.1 71.4,14.2 70.2,11.7 C69.3,9.7 67.9,8.2 66.1,7 C64.3,5.8 62.3,5.2 60.2,5.2 C56.8,5.2 53.9,6.5 51.7,9.1 C49.6,11.6 48.5,15.6 48.5,21 Z" id="Shape"></path>
                <path d="M124.2,26.1 L128.8,27.3 C127.8,31.6 126,34.7 123.5,36.8 C121,38.9 117.9,39.9 114.2,39.9 C111,39.9 108.3,39.2 106,37.8 C103.7,36.4 101.9,34.1 100.4,31 C99,27.9 98.2,24.2 98.2,20 C98.2,15.8 98.9,12.3 100.4,9.4 C101.8,6.5 103.8,4.3 106.3,2.8 C108.8,1.3 111.5,0.6 114.6,0.6 C117.9,0.6 120.8,1.5 123.2,3.4 C125.6,5.3 127.3,8 128.2,11.6 L123.7,12.8 C122.2,7.6 119.1,4.9 114.5,4.9 C112.2,4.9 110.2,5.4 108.5,6.5 C106.8,7.6 105.5,9.2 104.5,11.5 C103.5,13.7 103,16.6 103,20 C103,25.2 104,29.1 106,31.7 C108,34.3 110.7,35.6 114.1,35.6 C116.6,35.6 118.7,34.8 120.5,33.2 C122.4,31.8 123.6,29.4 124.2,26.1 Z" id="Path"></path>
                <polygon id="Path" points="151.4 39.4 151.4 1.5 156 1.5 156 20.3 173.2 1.5 179.3 1.5 164.8 16.9 179.9 39.4 173.9 39.4 161.6 20.3 156 26.3 156 39.4"></polygon>
                <path d="M207,39.4 L197.8,1.5 L202.4,1.5 L207.7,26.4 C208.3,29 208.7,31.5 209.2,34.2 L210.8,27.2 L217.5,1.6 L222.9,1.6 L227.9,20.8 C229.1,25.5 230,30 230.6,34.2 C231,31.7 231.6,29 232.3,25.9 L237.7,1.5 L242.4,1.5 L233,39.4 L228.5,39.4 L221.2,10.5 L220.1,6 C219.8,7.7 219.4,9.1 219.1,10.5 L211.7,39.4 L207,39.4 Z" id="Path"></path>
                <path d="M262.1,21 C262.1,14.5 263.7,9.6 266.8,6.1 C270,2.6 273.9,0.9 278.6,0.9 C281.6,0.9 284.4,1.7 286.9,3.2 C289.4,4.8 291.4,7 292.9,10 C294.4,13 295.1,16.5 295.1,20.6 C295.1,26.2 293.7,30.8 290.9,34.3 C287.8,38.2 283.7,40.1 278.6,40.1 C273.5,40.1 269.4,38.1 266.3,34.1 C263.5,30.4 262.1,26.1 262.1,21 Z M266.8,21 C266.8,25.7 267.9,29.3 270.2,31.9 C272.5,34.5 275.3,35.8 278.5,35.8 C281.9,35.8 284.7,34.5 286.9,31.9 C289.2,29.3 290.3,25.5 290.3,20.4 C290.3,17.1 289.7,14.2 288.5,11.7 C287.6,9.7 286.2,8.2 284.4,7 C282.6,5.8 280.6,5.2 278.5,5.2 C275.1,5.2 272.2,6.5 270,9.1 C267.9,11.6 266.8,15.6 266.8,21 Z" id="Shape"></path>
                <path d="M316.7,21 C316.7,14.5 318.3,9.6 321.4,6.1 C324.5,2.6 328.5,0.9 333.2,0.9 C336.2,0.9 339,1.7 341.5,3.2 C344,4.8 346,7 347.5,10 C349,13 349.7,16.5 349.7,20.6 C349.7,26.2 348.3,30.8 345.5,34.3 C342.4,38.2 338.3,40.1 333.2,40.1 C328.1,40.1 324,38.1 320.9,34.1 C318.1,30.4 316.7,26.1 316.7,21 Z M321.4,21 C321.4,25.7 322.5,29.3 324.8,31.9 C327.1,34.5 329.9,35.8 333.1,35.8 C336.5,35.8 339.3,34.5 341.5,31.9 C343.8,29.3 344.9,25.5 344.9,20.4 C344.9,17.1 344.3,14.2 343.1,11.7 C342.2,9.7 340.8,8.2 339,7 C337.2,5.8 335.2,5.2 333.1,5.2 C329.7,5.2 326.8,6.5 324.6,9.1 C322.5,11.6 321.4,15.6 321.4,21 Z" id="Shape"></path>
                <path d="M372.5,39.4 L372.5,1.5 L384.4,1.5 C387.4,1.5 389.6,1.7 391.1,2.2 C393.1,2.8 394.9,3.9 396.3,5.5 C397.8,7.1 398.9,9.1 399.7,11.6 C400.5,14 400.9,16.9 400.9,20.3 C400.9,24.6 400.2,28.2 398.8,31.2 C397.4,34.2 395.6,36.3 393.4,37.6 C391.2,38.9 388.3,39.5 384.8,39.5 L372.5,39.5 L372.5,39.4 Z M377.1,34.9 L384.5,34.9 C387.5,34.9 389.7,34.5 391.3,33.6 C392.8,32.7 394,31.3 394.8,29.4 C395.9,26.8 396.4,23.8 396.4,20.2 C396.4,16.4 395.8,13.3 394.7,11.1 C393.5,8.9 392,7.4 390.2,6.7 C389,6.2 387,6 384.4,6 L377.1,6 L377.1,34.9 Z" id="Shape"></path>
            </g>
            <g id="Layer_2">
                <g id="Group" transform="translate(0.000000, 64.000000)">
                    <path d="M41.6,65.9 C48,71.7 57.1,70.3 57.1,70.3 C64.3,64.9 65,60.1 65,60.1 L36,52.4 C36,52.4 35.2,60.1 41.6,65.9 Z" id="Path"></path>
                    <path d="M104,60.1 C104,60.1 104.7,64.8 111.9,70.3 C111.9,70.3 121,71.7 127.4,65.9 C133.8,60.1 133,52.4 133,52.4 L104,60.1 Z M85,0.5 L85,0.5 C84.9,0.5 84.8,0.5 84.8,0.5 C84.8,0.5 84.6,0.5 84.6,0.5 L84.6,0.5 C63.6,0.6 0.1,6.5 0.1,6.5 C0.1,52.5 3.6,134 3.6,134 C3.6,134 20.8,179.8 84.1,199.5 L84.1,200 C84.4,199.9 84.6,199.8 84.9,199.8 C85.2,199.9 85.4,200 85.7,200 L85.7,199.5 C148.8,179.8 166,134 166,134 C166,134 169.5,52.5 169.5,6.5 C169.5,6.5 106,0.6 85,0.5 Z M99.3,156.7 L94.3,147.1 L84.5,169.5 L74.7,147.1 L69.7,156.7 L57.7,143.7 L74.9,129.4 C74.9,129.4 78.1,133.3 84.5,133.3 C90.9,133.3 94.1,129.4 94.1,129.4 L111.3,143.7 L99.3,156.7 Z M134.4,81 L124.9,78.1 L112.4,90.5 L126.6,107.2 L114.8,121.4 L90.7,116.1 L90.7,105.2 L102.4,94.5 L102.9,76.2 C102.9,76.2 102.7,75.5 102,75.8 C101.4,76.2 93.6,83.5 93.6,83.5 L84.3,83.5 L75,83.5 C75,83.5 67.2,76.2 66.6,75.8 C66,75.4 65.7,76.2 65.7,76.2 L66.2,94.5 L77.9,105.2 L77.9,116.1 L53.8,121.4 L42,107.2 L56.2,90.5 L43.7,78.1 L34.2,81 L18.7,58.6 L32.4,27.6 L57.2,36.1 L58.6,27.6 L84.1,42.8 L109.6,27.6 L111,36.1 L135.8,27.6 L149.5,58.6 L134.4,81 Z" id="Shape"></path>
                </g>
                <path d="M106.5,34.6 C107.1,35.6 107.5,36.8 107.5,38.1 C107.5,42 104.3,45.2 100.4,45.2 C96.5,45.2 93.3,42 93.3,38.1 C93.3,35.1 95.3,32.5 97.9,31.5 L84.8,0.4 L72,31.5 C74.7,32.5 76.9,35.1 76.9,38.1 C76.9,42 73.7,45.2 69.8,45.2 C65.9,45.2 62.7,42 62.7,38.1 C62.7,36.8 63,35.6 63.6,34.6 L40.6,19.7 L48.7,57 C48.7,57 65.9,55.4 84.8,55.4 C103.6,55.4 121.2,57 121.2,57 L129.4,19.7 L106.5,34.6 Z" id="Path"></path>
            </g>
        </g>
    </g>
</svg>
